<svg xmlns="http://www.w3.org/2000/svg" width="14" height="568" fill="none" viewBox="0 0 14 568"><g id="3"><rect width="14" height="568" fill="none"/><path id="L22" fill="#D1031A" fill-rule="evenodd" d="M0.0106683 216L0 216.005V231.995L0.00960146 232L14 224.005V223.995L0.0106683 216Z" clip-rule="evenodd"/><path id="L23" fill="#D1031A" fill-rule="evenodd" d="M0.0106683 200L0 200.005V215.995L0.00960146 216L14 208.005V207.995L0.0106683 200Z" clip-rule="evenodd"/><path id="L24" fill="#D1031A" fill-rule="evenodd" d="M0.0106683 184L0 184.005V199.995L0.00960146 200L14 192.005V191.995L0.0106683 184Z" clip-rule="evenodd"/><path id="L25" fill="#D1031A" fill-rule="evenodd" d="M0.0106683 168L0 168.005V183.995L0.00960146 184L14 176.005V175.995L0.0106683 168Z" clip-rule="evenodd"/><path id="L26" fill="#D1031A" fill-rule="evenodd" d="M0.0106683 152L0 152.005V167.995L0.00960146 168L14 160.005V159.995L0.0106683 152Z" clip-rule="evenodd"/><path id="L27" fill="#D1031A" fill-rule="evenodd" d="M0.0106683 136L0 136.005V151.995L0.00960146 152L14 144.005V143.995L0.0106683 136Z" clip-rule="evenodd"/><path id="R22" fill="#D1031A" fill-rule="evenodd" d="M14 240V224L0 232.001L14 240Z" clip-rule="evenodd"/><path id="R23" fill="#D1031A" fill-rule="evenodd" d="M14 224V208L0 216.001L14 224Z" clip-rule="evenodd"/><path id="R24" fill="#D1031A" fill-rule="evenodd" d="M14 208V192L0 200.001L14 208Z" clip-rule="evenodd"/><path id="R25" fill="#D1031A" fill-rule="evenodd" d="M14 192V176L0 184.001L14 192Z" clip-rule="evenodd"/><path id="R26" fill="#FF7B74" fill-rule="evenodd" d="M14 176V160L0 168.001L14 176Z" clip-rule="evenodd"/><path id="R27" fill="#D1031A" fill-rule="evenodd" d="M14 160V144L0 152.001L14 160Z" clip-rule="evenodd"/><path id="R28" fill="#D1031A" fill-rule="evenodd" d="M14 144V128L0 136.001L14 144Z" clip-rule="evenodd"/></g></svg>