<svg xmlns="http://www.w3.org/2000/svg" width="14" height="568" fill="none" viewBox="0 0 14 568"><g id="15"><rect width="14" height="568" fill="none"/><path id="L23" fill="#1F4F22" fill-rule="evenodd" d="M0.0106683 200L0 200.005V215.995L0.00960146 216L14 208.005V207.995L0.0106683 200Z" clip-rule="evenodd"/><path id="L24" fill="#1F4F22" fill-rule="evenodd" d="M0.0106683 184L0 184.005V199.995L0.00960146 200L14 192.005V191.995L0.0106683 184Z" clip-rule="evenodd"/><path id="L26" fill="#53A626" fill-rule="evenodd" d="M0.0106683 152L0 152.005V167.995L0.00960146 168L14 160.005V159.995L0.0106683 152Z" clip-rule="evenodd"/><path id="L27" fill="#0C420F" fill-rule="evenodd" d="M0.0106683 136L0 136.005V151.995L0.00960146 152L14 144.005V143.995L0.0106683 136Z" clip-rule="evenodd"/><path id="L28" fill="#53A626" fill-rule="evenodd" d="M0.0106683 120L0 120.005V135.995L0.00960146 136L14 128.005V127.995L0.0106683 120Z" clip-rule="evenodd"/><path id="L29" fill="#53A626" fill-rule="evenodd" d="M0.0106683 104L0 104.005V119.995L0.00960146 120L14 112.005V111.995L0.0106683 104Z" clip-rule="evenodd"/><path id="R18" fill="#1F4F22" fill-rule="evenodd" d="M14 304V288L0 296.001L14 304Z" clip-rule="evenodd"/><path id="R25" fill="#1F4F22" fill-rule="evenodd" d="M14 192V176L0 184.001L14 192Z" clip-rule="evenodd"/><path id="R26" fill="#0C420F" fill-rule="evenodd" d="M14 176V160L0 168.001L14 176Z" clip-rule="evenodd"/><path id="R27" fill="#1F4F22" fill-rule="evenodd" d="M14 160V144L0 152.001L14 160Z" clip-rule="evenodd"/><path id="R28" fill="#53A626" fill-rule="evenodd" d="M14 144V128L0 136.001L14 144Z" clip-rule="evenodd"/><path id="R29" fill="#1F4F22" fill-rule="evenodd" d="M14 128V112L0 120.001L14 128Z" clip-rule="evenodd"/></g></svg>