<svg xmlns="http://www.w3.org/2000/svg" width="14" height="568" fill="none" viewBox="0 0 14 568"><g id="4"><rect width="14" height="568" fill="none"/><path id="L22" fill="#53A626" fill-rule="evenodd" d="M13.9893 216L14 216.005V231.995L13.9904 232L0 224.005V223.995L13.9893 216Z" clip-rule="evenodd"/><path id="L23" fill="#1F4F22" fill-rule="evenodd" d="M13.9893 200L14 200.005V215.995L13.9904 216L0 208.005V207.995L13.9893 200Z" clip-rule="evenodd"/><path id="L24" fill="#53A626" fill-rule="evenodd" d="M13.9893 184L14 184.005V199.995L13.9904 200L0 192.005V191.995L13.9893 184Z" clip-rule="evenodd"/><path id="L25" fill="#53A626" fill-rule="evenodd" d="M13.9893 168L14 168.005V183.995L13.9904 184L0 176.005V175.995L13.9893 168Z" clip-rule="evenodd"/><path id="L26" fill="#1F4F22" fill-rule="evenodd" d="M13.9893 152L14 152.005V167.995L13.9904 168L0 160.005V159.995L13.9893 152Z" clip-rule="evenodd"/><path id="L28" fill="#53A626" fill-rule="evenodd" d="M13.9893 120L14 120.005V135.995L13.9904 136L0 128.005V127.995L13.9893 120Z" clip-rule="evenodd"/><path id="L29" fill="#53A626" fill-rule="evenodd" d="M13.9893 104L14 104.005V119.995L13.9904 120L0 112.005V111.995L13.9893 104Z" clip-rule="evenodd"/><path id="R23" fill="#53A626" fill-rule="evenodd" d="M0 224V208L14 216.001L0 224Z" clip-rule="evenodd"/><path id="R24" fill="#B2D530" fill-rule="evenodd" d="M0 208V192L14 200.001L0 208Z" clip-rule="evenodd"/><path id="R25" fill="#1F4F22" fill-rule="evenodd" d="M0 192V176L14 184.001L0 192Z" clip-rule="evenodd"/><path id="R26" fill="#53A626" fill-rule="evenodd" d="M0 176V160L14 168.001L0 176Z" clip-rule="evenodd"/><path id="R27" fill="#53A626" fill-rule="evenodd" d="M0 160V144L14 152.001L0 160Z" clip-rule="evenodd"/><path id="R29" fill="#1F4F22" fill-rule="evenodd" d="M0 128V112L14 120.001L0 128Z" clip-rule="evenodd"/><path id="R30" fill="#1F4F22" fill-rule="evenodd" d="M0 112V96L14 104.001L0 112Z" clip-rule="evenodd"/></g></svg>