<svg xmlns="http://www.w3.org/2000/svg" width="14" height="568" fill="none" viewBox="0 0 14 568"><g id="1"><rect width="14" height="568" fill="none"/><path id="L21" fill="#18C10E" fill-rule="evenodd" d="M0.0106683 232L0 232.005V247.995L0.00960146 248L14 240.005V239.995L0.0106683 232Z" clip-rule="evenodd"/><path id="L22" fill="#18C10E" fill-rule="evenodd" d="M0.0106683 216L0 216.005V231.995L0.00960146 232L14 224.005V223.995L0.0106683 216Z" clip-rule="evenodd"/><path id="L23" fill="#18C10E" fill-rule="evenodd" d="M0.0106683 200L0 200.005V215.995L0.00960146 216L14 208.005V207.995L0.0106683 200Z" clip-rule="evenodd"/><path id="R21" fill="#089800" fill-rule="evenodd" d="M14 256V240L0 248.001L14 256Z" clip-rule="evenodd"/><path id="R22" fill="#089800" fill-rule="evenodd" d="M14 240V224L0 232.001L14 240Z" clip-rule="evenodd"/><path id="R23" fill="#089800" fill-rule="evenodd" d="M14 224V208L0 216.001L14 224Z" clip-rule="evenodd"/><path id="R24" fill="#18C10E" fill-rule="evenodd" d="M14 208V192L0 200.001L14 208Z" clip-rule="evenodd"/></g></svg>