<svg xmlns="http://www.w3.org/2000/svg" width="14" height="568" fill="none" viewBox="0 0 14 568"><g id="16"><rect width="14" height="568" fill="none"/><path id="L21" fill="#089800" fill-rule="evenodd" d="M13.9893 232L14 232.005V247.995L13.9904 248L0 240.005V239.995L13.9893 232Z" clip-rule="evenodd"/><path id="L22" fill="#18C10E" fill-rule="evenodd" d="M13.9893 216L14 216.005V231.995L13.9904 232L0 224.005V223.995L13.9893 216Z" clip-rule="evenodd"/><path id="L23" fill="#18C10E" fill-rule="evenodd" d="M13.9893 200L14 200.005V215.995L13.9904 216L0 208.005V207.995L13.9893 200Z" clip-rule="evenodd"/><path id="R21" fill="#089800" fill-rule="evenodd" d="M0 256V240L14 248.001L0 256Z" clip-rule="evenodd"/><path id="R22" fill="#18C10E" fill-rule="evenodd" d="M0 240V224L14 232.001L0 240Z" clip-rule="evenodd"/><path id="R23" fill="#18C10E" fill-rule="evenodd" d="M0 224V208L14 216.001L0 224Z" clip-rule="evenodd"/><path id="R24" fill="#089800" fill-rule="evenodd" d="M0 208V192L14 200.001L0 208Z" clip-rule="evenodd"/></g></svg>